<?xml version="1.0" encoding="iso-8859-1"?>
<!-- Generator: Adobe Illustrator 19.0.0, SVG Export Plug-In . SVG Version: 6.00 Build 0)  -->
<svg version="1.1" id="Capa_1" xmlns="http://www.w3.org/2000/svg" xmlns:xlink="http://www.w3.org/1999/xlink" x="0px" y="0px"
	 viewBox="0 0 496 496" style="enable-background:new 0 0 496 496;" xml:space="preserve">
<g>
	<g>
		<g>
			<path d="M472,240H344c-13.232,0-24,10.768-24,24v208c0,13.232,10.768,24,24,24h128c13.232,0,24-10.768,24-24V264
				C496,250.768,485.232,240,472,240z M480,472c0,4.408-3.592,8-8,8H344c-4.408,0-8-3.592-8-8v-40h144V472z M480,416H336V288h144
				V416z M480,272H336v-8c0-4.408,3.592-8,8-8h128c4.408,0,8,3.592,8,8V272z"/>
			<rect x="384" y="448" width="48" height="16"/>
			<path d="M152,240H24c-13.232,0-24,10.768-24,24v208c0,13.232,10.768,24,24,24h128c13.232,0,24-10.768,24-24V264
				C176,250.768,165.232,240,152,240z M160,472c0,4.408-3.592,8-8,8H24c-4.408,0-8-3.592-8-8v-40h144V472z M160,416H16V288h144V416z
				 M160,272H16v-8c0-4.408,3.592-8,8-8h128c4.408,0,8,3.592,8,8V272z"/>
			<rect x="64" y="448" width="48" height="16"/>
			<path d="M352,152c0-57.344-46.656-104-104-104S144,94.656,144,152s46.656,104,104,104S352,209.344,352,152z M240,73.624v22.12
				c-5.784-0.36-10.904-1.12-15.52-2.112C229.616,85.304,235.176,78.608,240,73.624z M223.856,67.44
				c-4.984,5.704-10.28,12.752-15.104,21.168c-5.584-2.504-9.712-5.232-12.592-7.568C204.432,74.984,213.76,70.328,223.856,67.44z
				 M160.408,160h31.96c0.936,15.664,4.48,29.344,9.368,41.088c-7.968,3.648-13.744,7.776-17.648,11.216
				C170.92,198.36,162.232,180.176,160.408,160z M196.168,222.952c2.872-2.336,6.992-5.056,12.568-7.552
				c4.832,8.424,10.112,15.448,15.12,21.152C213.76,233.664,204.432,229.008,196.168,222.952z M240,230.392
				c-4.824-4.976-10.36-11.648-15.512-20.024c4.616-0.992,9.736-1.752,15.512-2.112V230.392z M240,192.256
				c-8.736,0.488-16.384,1.752-23.064,3.488c-4.376-10.216-7.616-22.12-8.568-35.744H240V192.256z M240.008,144h-31.712
				c0.16-2.344,0.376-4.68,0.68-6.968l-15.864-2.08c-0.392,2.968-0.656,5.992-0.84,9.04h-31.856
				c1.816-20.168,10.504-38.352,23.672-52.296c3.904,3.448,9.68,7.568,17.64,11.216c-1.952,4.688-3.72,9.656-5.184,14.968
				l15.432,4.24c1.36-4.928,3.016-9.56,4.872-13.888c6.704,1.752,14.384,3.024,23.16,3.512V144z M335.592,144h-31.96
				c-0.936-15.664-4.48-29.344-9.368-41.088c7.968-3.648,13.744-7.776,17.648-11.216C325.08,105.64,333.768,123.824,335.592,144z
				 M299.832,81.048c-2.872,2.336-6.992,5.056-12.568,7.552c-4.832-8.424-10.112-15.448-15.12-21.152
				C282.24,70.336,291.568,74.992,299.832,81.048z M256,73.616c4.824,4.976,10.36,11.648,15.512,20.024
				c-4.616,0.992-9.736,1.752-15.512,2.112V73.616z M256,111.744c8.736-0.488,16.384-1.752,23.064-3.488
				c4.376,10.216,7.616,22.12,8.568,35.744H256V111.744z M287.64,160c-0.928,13.664-4.136,25.576-8.472,35.768
				c-6.712-1.752-14.392-3.024-23.168-3.52V160H287.64z M256,230.528v-22.272c5.832,0.36,11,1.136,15.656,2.144
				C266.472,218.856,260.872,225.552,256,230.528z M272.144,236.552c5.008-5.704,10.288-12.728,15.12-21.152
				c5.576,2.496,9.696,5.224,12.568,7.552C291.568,229.008,282.24,233.664,272.144,236.552z M294.264,201.088
				c4.896-11.744,8.432-25.424,9.368-41.088h31.96c-1.824,20.176-10.512,38.36-23.68,52.304
				C308.008,208.856,302.232,204.736,294.264,201.088z"/>
			<path d="M125.656,141.656l-11.312-11.312L96.2,148.488C98.304,75.128,165.512,16,248,16s149.696,59.128,151.8,132.488
				l-18.144-18.144l-11.312,11.312L408,179.312l37.656-37.656l-11.312-11.312l-18.52,18.52C413.952,66.504,339.464,0,248,0
				S82.048,66.504,80.176,148.864l-18.52-18.52l-11.312,11.312L88,179.312L125.656,141.656z"/>
			<path d="M464,304H352v96h112V304z M448,384h-80v-64h80V384z"/>
			<path d="M144,304H32v96h112V304z M128,384H48v-64h80V384z"/>
		</g>
	</g>
</g>
<g>
</g>
<g>
</g>
<g>
</g>
<g>
</g>
<g>
</g>
<g>
</g>
<g>
</g>
<g>
</g>
<g>
</g>
<g>
</g>
<g>
</g>
<g>
</g>
<g>
</g>
<g>
</g>
<g>
</g>
</svg>
